<svg xmlns="http://www.w3.org/2000/svg" width="800" height="800" class="icon" viewBox="0 -23 1070 1070"><path fill="#bbc6e6" d="M520.086 863.356 12.593 570.355C5.817 566.444.32 570.6.32 579.632v135.86c0 6.322 3.85 13.682 8.593 16.423l498.893 288.035c6.775 3.911 12.28-.246 12.28-9.277zm536.828-292.424c0-7.014-4.265-10.24-9.532-7.206L520.086 868.168v139.802c0 10.525 6.406 15.368 14.298 10.81l514.192-296.866c4.604-2.657 8.338-9.801 8.338-15.938z"/><path fill="#243462" d="m531.589 399.448-412.47 238.136 407.589 235.327 412.477-238.145z"/><path fill="#bbc6e6" d="m496.334 866.905 55.211-4.265 10.248 102.977-35.978 20.78s-4.12 4.289-14.244-1.61-15.237-117.882-15.237-117.882"/><path fill="#637dc6" d="m50.273 646.816-13.62-7.861v70.217l13.62 7.86zm37.872 21.865-13.62-7.86v70.216l13.62 7.861zm37.873 21.866-13.62-7.86v70.208l13.62 7.869zm37.864 21.866-13.62-7.869v70.217l13.62 7.869zm276.44 179.977c8.13 4.696 14.737 16.13 14.737 25.523s-6.606 13.204-14.737 8.507c-8.138-4.689-14.744-16.13-14.744-25.523s6.606-13.204 14.744-8.507"/><path fill="#bbc6e6" d="M502.532 1016.901s17.331 13.936 35.355-.138c18.016-14.082.824-54.003.824-54.003l-35.77.116z"/><path fill="#8ea1d6" d="M520.086 874.728s4.966.793 10.633-1.117c2.926-.985 5.335-1.624 8.23-3.826l28.387-16.484v67.13l-25.176 14.705v41.768l25.176-14.367v37.218l-30.935 18.247s-3.203 1.948-6.336 3.272a21.2 21.2 0 0 1-5.382 1.463c-.916.093-1.81.231-2.572.278-1.178.061-2.025.038-2.025.038z"/><path fill="#f3f5fb" d="M1.09 570.717c1.856-3.072 10.363-1.017 10.363-1.017l497.824 287.42s7.114 7.037 19.787 1.047c11.525-5.444 438.37-252.873 515.878-297.806 7.745-4.496 11.972 5.767 11.972 5.767l-.023 12.15L539.427 877.03s-14.914 12.996-41.237-1.47C471.874 861.091.32 588.11.32 588.11s-1.085-14.321.77-17.393"/><path fill="#f3f5fb" d="m520.548 275.613 13.328-5.427 513.337 285.14-1.009 5.628-34.561 18.71-491.095-283.678z"/><path fill="#f3f5fb" d="M1047.213 555.326s10.44 3.234 9.7 11.402l-6.097 2.403-6.814-5.244-1.093-6.082zM15.526 570.078l-.262-15.445L504.611 272.11l15.937 3.503v19.125L30.448 577.7z"/><path fill="#f3f5fb" d="M503.918 272.51s12.442-10.062 29.958-2.324l-2.172 6.528-11.618 11.095-6.436-1.748-5.02-6.174z"/><path fill="#375198" d="m520.079 291.497 2.125-1.825 506.154 276.533c1.5.824 1.917 1.532 1.963 2.34.046.817-.285 1.733-1.702 2.533L917.15 634.612 519.763 405.184z"/><path fill="#375198" d="M517.045 290.28s2.087-1.555 5.159-.608l-.047 1.217-2.086 1.724-2.64-1.162z"/><path fill="#637dc6" d="M992.602 664.616c8.138-4.704 14.744-.885 14.744 8.516 0 9.393-6.606 20.841-14.744 25.538-8.145 4.696-14.751.885-14.751-8.516 0-9.393 6.606-20.841 14.751-25.538M928.992 715c0-11.256-6.86-16.438-15.299-11.564L663.284 848.004c-8.446 4.881-15.298 17.977-15.298 29.234 0 11.256 6.852 16.437 15.298 11.564l250.41-144.576c8.437-4.874 15.297-17.97 15.297-29.226"/><path fill="#f3f5fb" d="M.32 580.502s-4.111-18.57 20.688-29.18l-5.15 7.268c27.093 29.05 20.964 33.246-12.196 17.2z"/><path fill="#375198" d="m124.085 634.72 396.001-228.628V292.221s-1.14-3.05-3.295-1.81c-38.904 22.351-410.353 235.827-487.637 281.006-1.725 1.017-4.089 3.141-3.534 5.582.47 2.056 3.61 4.458 5.012 5.39 15.822 10.555 93.453 52.331 93.453 52.331"/><path fill="#bbc6e6" d="M528.64 654.961 8.874 354.877V456.36c0 4.212 2.564 9.116 5.728 10.94l505.854 292.055c4.512 2.61 8.184-.162 8.184-6.182zm536.797-309.924L528.64 654.961v101.484c0 4.219 2.564 6.159 5.728 4.334l525.34-303.31c3.165-1.825 5.729-6.73 5.729-10.948z"/><path fill="#4867bc" d="m526.03 605.91 2.61 49.051 536.797-309.924.208-40.867z"/><path fill="#4867bc" d="m9.921 303.562-1.047 51.315L528.64 654.96v-47.52z"/><path fill="#375096" d="M573.496 8.582C555.534-1.79 528.324-2.913 512.772 6.064L20.262 290.42c-15.553 8.977-13.598 24.691 4.357 35.055l477.297 275.57c17.955 10.363 45.171 11.495 60.724 2.517l492.51-284.355c15.553-8.977 13.598-24.691-4.365-35.054z"/><path fill="#bbc6e6" d="m504.888 641.288 55.211-4.266L570.347 740l-35.979 20.78s-4.119 4.289-14.243-1.609-15.237-117.882-15.237-117.882"/><path fill="#f3f5fb" d="M8.612 343.336 518.2 635.713s9.932 5.598 22.605-.392c12.68-5.983 524.694-302.056 524.694-302.056l-.062 11.772L547.98 643.79s-14.914 12.996-41.237-1.47C480.428 627.851 8.874 354.876 8.874 354.876z"/><path fill="#637dc6" d="m58.827 403.166-13.62-7.86v70.216l13.62 7.861zm37.872 21.866-13.62-7.86v70.216l13.62 7.86zm37.872 21.866-13.62-7.861v70.217l13.62 7.86zm37.865 21.866-13.62-7.861v70.209l13.62 7.868zm276.433 177.69c8.138 4.696 14.744 16.13 14.744 25.523s-6.606 13.204-14.744 8.507c-8.13-4.696-14.737-16.13-14.737-25.523s6.606-13.204 14.737-8.507m552.287-229.444c8.138-4.697 14.744-.886 14.744 8.515s-6.606 20.842-14.744 25.546c-8.146 4.696-14.751.878-14.751-8.516 0-9.4 6.605-20.849 14.751-25.545"/><path fill="#8ea1d6" d="M528.64 649.11s5.397.277 11.056-1.24c2.926-.777 5.39-2.332 8.285-4.08l27.91-16.107v50.345l-25.177 14.536v33.107l24.907-14.375v26.162l-42.153 23.953s-.455.246-1.009.439a9 9 0 0 1-1.355.323c-.778.138-2.464.07-2.464.07z"/><path fill="#637dc6" d="M937.545 470.765c0-11.256-6.86-16.437-15.298-11.564L671.837 603.77c-8.445 4.882-15.298 17.978-15.298 29.234s6.853 16.438 15.299 11.564l250.409-144.575c8.438-4.874 15.298-17.97 15.298-29.227"/><path fill="#98aada" d="M845.024 276.322v26.847l-18.586 8.585-3.742-24.43z"/><path fill="#98a9d9" d="M555.102 125.117c-14.605-8.43-36.733-9.347-49.382-2.04L220.47 287.763c-12.642 7.299-11.056 20.072 3.55 28.502l277.841 160.413c14.598 8.431 36.726 9.347 49.375 2.048L836.485 314.04c12.643-7.306 11.057-20.08-3.549-28.51z"/><path fill="#98aada" d="M211.94 272.534v26.624l11.21 9.862L234 287.47z"/><path fill="#4463b9" d="M555.102 97.654c-14.605-8.43-36.733-9.347-49.382-2.048L220.47 260.3c-12.642 7.299-11.056 20.072 3.55 28.502l277.841 160.413c14.598 8.43 36.726 9.347 49.375 2.048l285.248-164.686c12.643-7.306 11.057-20.08-3.549-28.51z"/><path fill="#3e5aa9" d="m528.017 153.75 64.057 36.987v12.334l47.373 27.348h19.849l73.404 42.384-58.599 33.83h-20.31L606.01 334.22v14.775l-73.004 42.145-66.599-38.45v-11.949l-47.45-27.394h-22.343l-72.357-41.953 62.225-35.924 22.02-.2 46.842-27.048-.062-12.48z"/><path fill="#637dc6" d="m528.017 142.74 64.057 36.987v12.335l47.373 27.347h19.849l73.404 42.384-58.599 33.83h-20.31L606.01 323.21v14.767l-73.004 42.153-66.599-38.45v-11.956l-47.45-27.394h-22.343l-72.357-41.946 62.225-35.932 22.02-.192 46.842-27.048-.062-12.48z"/><path fill="#d9dff1" d="M457.384 237.017c10.44-6.028 27.401-6.028 37.842 0 10.44 6.029 10.44 15.822 0 21.85-10.44 6.03-27.402 6.03-37.842 0-10.448-6.028-10.448-15.821 0-21.85"/><path fill="#d9dff1" d="M494.602 229.103c7.445-4.297 19.54-4.297 26.986 0 7.445 4.296 7.445 11.279 0 15.575-7.445 4.304-19.54 4.304-26.986 0-7.445-4.296-7.445-11.28 0-15.575"/><path fill="#d9dff1" d="M513.018 234.053c15.337-8.862 40.244-8.862 55.581 0 15.345 8.854 15.345 23.236 0 32.09-15.337 8.855-40.244 8.855-55.58 0-15.345-8.854-15.345-23.236 0-32.09"/><path fill="#d9dff1" d="M528.417 270.478c14.059-8.115 36.88-8.115 50.93 0 14.051 8.107 14.051 21.288 0 29.403s-36.871 8.115-50.93 0c-14.051-8.115-14.051-21.296 0-29.403"/><path fill="#d9dff1" d="m495.226 237.017-37.842 21.85 71.033 41.014 37.842-21.85z"/></svg>