<svg xmlns="http://www.w3.org/2000/svg" viewBox="0 0 64 64" fill="none">
  <defs>
    <linearGradient id="wingGradient" x1="0%" y1="0%" x2="100%" y2="100%">
      <stop offset="0%" stop-color="#27dab4"/>
      <stop offset="100%" stop-color="#24d758"/>
    </linearGradient>
  </defs>

  <!-- Wing Icon Centered -->
  <g transform="translate(7, 12)">
    <!-- Left Wing Outer -->
    <path d="M25 20 Q12 14 5 26 Q2 34 8 42 Q18 35 25 40 Q18 30 25 20"
          fill="url(#wingGradient)" opacity="0.95"/>
    <!-- Left Wing Inner -->
    <path d="M25 20 Q16 10 6 15 Q0 22 5 32 Q14 22 25 20"
          fill="url(#wingGradient)" opacity="0.7"/>

    <!-- Right Wing Outer -->
    <path d="M25 20 Q38 14 45 26 Q48 34 42 42 Q32 35 25 40 Q32 30 25 20"
          fill="url(#wingGradient)" opacity="0.95"/>
    <!-- Right Wing Inner -->
    <path d="M25 20 Q34 10 44 15 Q50 22 45 32 Q36 22 25 20"
          fill="url(#wingGradient)" opacity="0.7"/>

    <!-- Center Core -->
    <circle cx="25" cy="28" r="4" fill="url(#wingGradient)"/>
    <circle cx="25" cy="28" r="2" fill="#111"/>
  </g>
</svg>
