<svg xmlns="http://www.w3.org/2000/svg" id="Layer_1" viewBox="0 0 506.7 136.4"><defs><style>.st0{fill:none;stroke:#bbcfde;stroke-miterlimit:10;stroke-width:.5px}.st1{fill:#001a47}</style></defs><path d="M86.2 81.4H33.9M473.6 81.4H99.1M473.1 110.7H33.6" class="st0"/><path d="M45.6 91.5c.4.8 1.1 1.3 2.1 1.3s1.6-.5 1.6-1.3-.8-1.1-1.8-1.3c-1-.3-2-.5-2-1.7s1-1.8 2.1-1.8 1.9.5 2.3 1.3l-.5.4c-.3-.7-.9-1.1-1.8-1.1s-1.5.5-1.5 1.2.7.9 1.6 1.2c1.1.3 2.2.5 2.2 1.8s-1 1.9-2.3 1.9-2.2-.6-2.6-1.5l.5-.4ZM51.2 95h-.4v-.5h.4c.3 0 .5-.2.8-.7l.3-.6-1.8-4.5h.6l1.4 3.8 1.4-3.8h.6L52.4 94c-.3.7-.6 1.1-1.3 1.1ZM56.1 93.3h-.6v-4.7h.6v.8c.3-.4.7-.8 1.4-.8s1.1.4 1.3.9c.2-.5.8-.9 1.5-.9s1.5.7 1.5 1.7v3.1h-.6v-3c0-.7-.3-1.3-1.1-1.3s-1.3.5-1.3 1.4v2.9h-.6v-3c0-.7-.3-1.3-1.1-1.3s-1.3.5-1.3 1.4v2.9ZM64 92.4v.8h-.6v-6.5h.6v2.6q.45-.9 1.5-.9c1.3 0 2 1.1 2 2.4s-.7 2.4-2 2.4-1.3-.4-1.5-.9Zm0-1.3c0 1.2.8 1.7 1.5 1.7 1 0 1.5-.8 1.5-1.9s-.6-1.9-1.5-1.9-1.5.5-1.5 1.7zM70.5 93.4c-1.3 0-2.1-1-2.1-2.4s.8-2.4 2.1-2.4 2.1 1 2.1 2.4-.9 2.4-2.1 2.4m0-.6c.9 0 1.5-.8 1.5-1.9s-.6-1.9-1.5-1.9-1.5.8-1.5 1.9.6 1.9 1.5 1.9M74.4 93.3h-.6v-6.5h.6zM269.8 86.8l1.5 5.5 1.5-5.5h.6l-1.8 6.5h-.6l-1.5-5.4-1.5 5.4h-.6l-1.8-6.5h.6l1.5 5.5 1.5-5.5zM275.8 93.4c-1.3 0-2.1-1-2.1-2.4s.8-2.4 2.1-2.4 2.1 1 2.1 2.4-.9 2.4-2.1 2.4m0-.6c.9 0 1.5-.8 1.5-1.9s-.6-1.9-1.5-1.9-1.5.8-1.5 1.9.6 1.9 1.5 1.9M281.3 89.2h-.4c-.7 0-1.3.6-1.3 1.5v2.6h-.6v-4.7h.6v.9c.2-.5.6-.9 1.3-.9h.3v.6ZM281.9 90.9c0-1.3.7-2.4 2-2.4s1.3.4 1.5.9v-2.6h.6v6.5h-.6v-.8q-.45.9-1.5.9c-1.3 0-2-1.1-2-2.4ZM284 89c-1 0-1.5.8-1.5 1.9s.6 1.9 1.5 1.9 1.5-.5 1.5-1.7v-.4c0-1.3-.8-1.7-1.5-1.7M288.1 93.3h-.6v-4.7h.6v.8c.3-.4.7-.8 1.4-.8s1.1.4 1.3.9c.2-.5.8-.9 1.5-.9s1.5.7 1.5 1.7v3.1h-.6v-3c0-.7-.3-1.3-1.1-1.3s-1.3.5-1.3 1.4v2.9h-.6v-3c0-.7-.3-1.3-1.1-1.3s-1.3.5-1.3 1.4v2.9ZM295 92c0-.9.8-1.3 2-1.6l1-.2v-.3c0-.6-.4-.9-1-.9s-1.1.3-1.2.9l-.6-.2c.2-.8.9-1.3 1.8-1.3s1.6.5 1.6 1.4v2.5c0 .3.3.4.6.3v.5c-.7 0-1.1 0-1.1-.6-.3.4-.8.7-1.5.7s-1.5-.5-1.5-1.3Zm3-1.3-.8.2c-.9.2-1.5.4-1.5 1.1s.4.8 1 .8 1.4-.5 1.4-1.2v-1ZM302.3 89.2h-.4c-.7 0-1.3.6-1.3 1.5v2.6h-.6v-4.7h.6v.9c.2-.5.6-.9 1.3-.9h.3v.6ZM303.9 90.9l2.3-2.4h.8l-1.9 1.9 2 2.8h-.7l-1.8-2.4-.8.8v1.6h-.6v-6.5h.6v4.1ZM229.4 122.6h-.6v-6.5h2.4c1.3 0 2.2.6 2.2 1.8s-.8 1.8-2.2 1.8h-1.7v2.9Zm1.7-3.4c1 0 1.6-.5 1.6-1.2s-.6-1.2-1.6-1.2h-1.7v2.5h1.7ZM236.4 118.5h-.4c-.7 0-1.3.6-1.3 1.5v2.6h-.6v-4.7h.6v.9c.2-.5.6-.9 1.3-.9h.3v.6ZM237.4 116.1h.7v.8h-.7zm.6 6.5h-.6v-4.7h.6zM240.2 122.6h-.6v-4.7h.6v.8c.3-.4.7-.8 1.4-.8s1.1.4 1.3.9c.2-.5.8-.9 1.5-.9s1.5.7 1.5 1.7v3.1h-.6v-3c0-.7-.3-1.3-1.1-1.3s-1.3.5-1.3 1.4v2.9h-.6v-3c0-.7-.3-1.3-1.1-1.3s-1.3.5-1.3 1.4v2.9ZM247 121.4c0-.9.8-1.3 2-1.6l1-.2v-.3c0-.6-.4-.9-1-.9s-1.1.3-1.2.9l-.6-.2c.2-.8.9-1.3 1.8-1.3s1.6.5 1.6 1.4v2.5c0 .3.3.4.6.3v.5c-.7 0-1.1 0-1.1-.6-.3.4-.8.7-1.5.7s-1.5-.5-1.5-1.3Zm3-1.3-.8.2c-.9.2-1.5.4-1.5 1.1s.4.8 1 .8 1.4-.5 1.4-1.2v-1ZM254.4 118.5h-.4c-.7 0-1.3.6-1.3 1.5v2.6h-.6v-4.7h.6v.9c.2-.5.6-.9 1.3-.9h.3v.6ZM255.6 124.3h-.4v-.5h.4c.3 0 .5-.2.8-.7l.3-.6-1.8-4.5h.6l1.4 3.8 1.4-3.8h.6l-2.1 5.3c-.3.7-.6 1.1-1.3 1.1ZM262.5 122.6h-.6v-6.5h.6zM265.8 122.7c-1.3 0-2.1-1-2.1-2.4s.8-2.4 2.1-2.4 2.1 1 2.1 2.4-.9 2.4-2.1 2.4m0-.5c.9 0 1.5-.8 1.5-1.9s-.6-1.9-1.5-1.9-1.5.8-1.5 1.9.6 1.9 1.5 1.9M270.8 124.3c-1 0-1.7-.5-2-1.3l.6-.2c.2.7.7 1 1.4 1s1.5-.5 1.5-1.6v-.7c-.3.5-.8.9-1.5.9-1.3 0-2-1.1-2-2.3s.7-2.3 2-2.3 1.3.4 1.5.9v-.9h.6v4.3c0 1.4-.9 2.1-2.1 2.1Zm.1-6c-.9 0-1.5.7-1.5 1.8s.6 1.8 1.5 1.8 1.4-.5 1.4-1.7v-.2c0-1.2-.8-1.7-1.4-1.7M276.2 122.7c-1.3 0-2.1-1-2.1-2.4s.8-2.4 2.1-2.4 2.1 1 2.1 2.4-.9 2.4-2.1 2.4m0-.5c.9 0 1.5-.8 1.5-1.9s-.6-1.9-1.5-1.9-1.5.8-1.5 1.9.6 1.9 1.5 1.9"/><path d="M31 16.6v21.1c0 3.6 1.9 6.9 5.1 8.6l22 12.2h.1l22.1-12.2c3.1-1.7 5.1-5 5.1-8.6V16.6zm35.4 25.1c-1.6.9-3.5 1.4-5.4 1.4H40.6L52 36.7q1.65-.9 3.6-.9h21.6l-10.9 6ZM66 31.2q-1.65.9-3.6.9H40.8l10.9-6c1.6-.9 3.5-1.4 5.4-1.4h20.4l-11.4 6.4Z" style="fill:#2006f7"/><path d="M459.7 32H425c-1.6 0-2.9-1.3-2.9-2.9s1.3-2.9 2.9-2.9h45.1v-9.6H425c-6.9 0-12.5 5.6-12.5 12.5s5.6 12.5 12.5 12.5h34.7c1.6 0 2.9 1.3 2.9 2.9s-1.3 2.8-2.9 2.8h-45.2v9.6h45.2c6.9 0 12.5-5.5 12.5-12.4S466.6 32 459.7 32M198.5 16.7h-18.8c-11.1 0-20.2 9-20.2 20.2 0 11.1 9 20.2 20.2 20.2h18.8c11.1 0 20.2-9 20.2-20.2 0-11.1-9-20.2-20.2-20.2m0 30.7h-18.8c-5.8 0-10.5-4.7-10.5-10.5s4.7-10.5 10.5-10.5h18.8c5.8 0 10.5 4.7 10.5 10.5s-4.7 10.5-10.5 10.5M388.4 16.7h-18.8c-11.1 0-20.2 9-20.2 20.2 0 11.1 9 20.2 20.2 20.2h18.8c11.1 0 20.2-9 20.2-20.2 0-11.1-9-20.2-20.2-20.2m0 30.7h-18.8c-5.8 0-10.5-4.7-10.5-10.5s4.7-10.5 10.5-10.5h18.8c5.8 0 10.5 4.7 10.5 10.5s-4.7 10.5-10.5 10.5M334.1 16.8V32h-37.6V16.8h-9.6V57h9.6V41.6h37.6V57h9.6V16.8zM143.4 32h-34.7c-1.6 0-2.9-1.3-2.9-2.9s1.3-2.9 2.9-2.9h45.1v-9.6h-45.1c-6.9 0-12.5 5.6-12.5 12.5s5.6 12.5 12.5 12.5h34.7c1.6 0 2.9 1.3 2.9 2.9s-1.3 2.8-2.9 2.8H98.2v9.6h45.2c6.9 0 12.5-5.5 12.5-12.4S150.3 32 143.4 32M266.3 16.8h-42.1V57h9.6V46.2h32.5c8.1 0 14.7-6.6 14.7-14.7s-6.6-14.7-14.7-14.7m0 19.8h-32.5V26.4h32.5c2.8 0 5.1 2.3 5.1 5.1s-2.3 5.1-5.1 5.1" class="st1"/></svg>