<svg xmlns="http://www.w3.org/2000/svg" viewBox="0 0 180 180" fill="none">
  <defs>
    <linearGradient id="wg" x1="0%" y1="0%" x2="100%" y2="100%">
      <stop offset="0%" stop-color="#27dab4"/>
      <stop offset="100%" stop-color="#24d758"/>
    </linearGradient>
  </defs>
  <rect width="180" height="180" rx="36" fill="#111"/>
  <g transform="translate(30, 35)">
    <path d="M60 55 Q30 40 10 70 Q0 90 20 115 Q45 95 60 110 Q45 85 60 55" fill="url(#wg)" opacity="0.95"/>
    <path d="M60 55 Q40 25 15 40 Q0 60 10 80 Q35 60 60 55" fill="url(#wg)" opacity="0.7"/>
    <path d="M60 55 Q90 40 110 70 Q120 90 100 115 Q75 95 60 110 Q75 85 60 55" fill="url(#wg)" opacity="0.95"/>
    <path d="M60 55 Q80 25 105 40 Q120 60 110 80 Q85 60 60 55" fill="url(#wg)" opacity="0.7"/>
    <circle cx="60" cy="75" r="10" fill="url(#wg)"/>
    <circle cx="60" cy="75" r="5" fill="#111"/>
  </g>
</svg>
