<svg xmlns="http://www.w3.org/2000/svg" viewBox="0 0 32 32" fill="none">
  <defs>
    <linearGradient id="wg" x1="0%" y1="0%" x2="100%" y2="100%">
      <stop offset="0%" stop-color="#27dab4"/>
      <stop offset="100%" stop-color="#24d758"/>
    </linearGradient>
  </defs>
  <rect width="32" height="32" rx="6" fill="#111"/>
  <g transform="translate(4, 6)">
    <path d="M12 10 Q6 7 2 13 Q0 17 4 21 Q9 17 12 20 Q9 15 12 10" fill="url(#wg)" opacity="0.95"/>
    <path d="M12 10 Q8 5 3 7 Q0 11 2 15 Q7 11 12 10" fill="url(#wg)" opacity="0.7"/>
    <path d="M12 10 Q18 7 22 13 Q24 17 20 21 Q15 17 12 20 Q15 15 12 10" fill="url(#wg)" opacity="0.95"/>
    <path d="M12 10 Q16 5 21 7 Q24 11 22 15 Q17 11 12 10" fill="url(#wg)" opacity="0.7"/>
    <circle cx="12" cy="14" r="2" fill="url(#wg)"/>
  </g>
</svg>
